<svg width="30" height="32" viewBox="0 0 30 32" fill="none" xmlns="http://www.w3.org/2000/svg">
<path d="M19.32 2.66666C23.2125 2.66666 25.54 5.22666 25.5766 9.50932V22.388C25.5766 26.7307 23.243 29.3333 19.32 29.3333H9.91131C9.40951 29.3333 8.93329 29.2907 8.48509 29.2067L8.21958 29.152C5.33182 28.4947 3.65349 26.0733 3.65349 22.388V9.61199C3.65349 9.16666 3.67785 8.73999 3.72657 8.33199C4.15163 4.75199 6.39874 2.66666 9.91131 2.66666H19.32ZM19.309 4.60932H9.91131C6.92003 4.60932 5.40368 6.29332 5.40368 9.61199V22.388C5.40368 25.7067 6.92003 27.3907 9.91131 27.3907H19.309C22.2991 27.3907 23.8057 25.7067 23.8057 22.388V9.61199C23.8057 6.29332 22.2991 4.60932 19.309 4.60932ZM18.9911 20.68C19.471 20.68 19.8595 21.112 19.8595 21.6453C19.8595 22.1787 19.471 22.6107 18.9911 22.6107H10.2085C9.72861 22.6107 9.33887 22.1787 9.33887 21.6453C9.33887 21.112 9.72861 20.68 10.2085 20.68H18.9911ZM18.9911 15.028C19.326 14.988 19.6537 15.164 19.8327 15.48C20.0118 15.7987 20.0118 16.2013 19.8327 16.52C19.6537 16.836 19.326 17.012 18.9911 16.972H10.2085C9.76272 16.916 9.42535 16.4987 9.42535 16C9.42535 15.5013 9.76272 15.0827 10.2085 15.028H18.9911ZM13.5603 9.38932C14.0061 9.44399 14.3434 9.86266 14.3434 10.3613C14.3434 10.8587 14.0061 11.2773 13.5603 11.332H10.2194C9.77246 11.2773 9.43509 10.8587 9.43509 10.3613C9.43509 9.86266 9.77246 9.44399 10.2194 9.38932H13.5603Z" fill="#9B9B9B"/>
</svg>
