<svg width="24" height="24" viewBox="0 0 24 24" fill="none" xmlns="http://www.w3.org/2000/svg">
<path d="M12.058 2.00008C16.2115 2.03077 19.9153 4.61803 21.3675 8.50387C22.8199 12.3901 21.7187 16.7681 18.5997 19.5079C15.4812 22.2473 10.9929 22.7804 7.31788 20.848L7.27208 20.8319C7.26493 20.8278 7.26378 20.8242 7.26224 20.8194L6.57971 20.4332C6.4407 20.3763 6.28665 20.3671 6.19261 20.3909C5.4831 20.646 4.75798 20.8554 4.02167 21.018L3.88671 21.0343C3.07616 21.0523 2.66776 20.5263 2.66776 19.7609L2.6873 19.597C2.87136 18.8357 3.10204 18.0865 3.36458 17.3927C3.40531 17.2613 3.39175 17.1192 3.32147 16.9875L3.13765 16.6292C1.51288 13.5227 1.63541 9.79358 3.46059 6.8001C5.28554 3.80701 8.54635 1.98613 12.058 2.00008Z" fill="#061F6F"/>
</svg>
