<svg width="20" height="20" viewBox="0 0 20 20" fill="none" xmlns="http://www.w3.org/2000/svg">
<rect x="1" y="1" width="18" height="18" rx="9" fill="#819CFF" stroke="white" stroke-width="2"/>
<path d="M12.3042 8.2207C12.3042 8.611 12.2004 8.95833 11.9927 9.2627C11.7886 9.56706 11.5111 9.80518 11.1602 9.97705C11.5684 10.1525 11.8906 10.4085 12.127 10.7451C12.3669 11.0817 12.4868 11.4631 12.4868 11.8892C12.4868 12.5659 12.2576 13.1048 11.7993 13.5059C11.3446 13.9069 10.7448 14.1074 10 14.1074C9.24805 14.1074 8.64469 13.9069 8.18994 13.5059C7.73877 13.1012 7.51318 12.5623 7.51318 11.8892C7.51318 11.4666 7.62777 11.0853 7.85693 10.7451C8.08968 10.4049 8.41016 10.1471 8.81836 9.97168C8.47103 9.7998 8.1971 9.56169 7.99658 9.25732C7.79606 8.95296 7.6958 8.60742 7.6958 8.2207C7.6958 7.56185 7.90706 7.03906 8.32959 6.65234C8.75212 6.26562 9.30892 6.07227 10 6.07227C10.6875 6.07227 11.2425 6.26562 11.665 6.65234C12.0911 7.03906 12.3042 7.56185 12.3042 8.2207ZM11.4932 11.8677C11.4932 11.4308 11.3535 11.0745 11.0742 10.7988C10.7985 10.5231 10.4368 10.3853 9.98926 10.3853C9.54167 10.3853 9.1818 10.5213 8.90967 10.7935C8.64111 11.0656 8.50684 11.4237 8.50684 11.8677C8.50684 12.3117 8.63753 12.6608 8.89893 12.915C9.1639 13.1693 9.53092 13.2964 10 13.2964C10.4655 13.2964 10.8307 13.1693 11.0957 12.915C11.3607 12.6572 11.4932 12.3081 11.4932 11.8677ZM10 6.88867C9.6097 6.88867 9.29281 7.01042 9.04932 7.25391C8.80941 7.49382 8.68945 7.82145 8.68945 8.23682C8.68945 8.63428 8.80762 8.95654 9.04395 9.20361C9.28385 9.4471 9.60254 9.56885 10 9.56885C10.3975 9.56885 10.7144 9.4471 10.9507 9.20361C11.1906 8.95654 11.3105 8.63428 11.3105 8.23682C11.3105 7.83936 11.187 7.5153 10.9399 7.26465C10.6929 7.014 10.3796 6.88867 10 6.88867Z" fill="white"/>
</svg>
