<svg width="32" height="32" viewBox="0 0 32 32" fill="none" xmlns="http://www.w3.org/2000/svg">
<path d="M21.7715 2.66666C26.3092 2.66666 29.3333 5.90514 29.3333 10.5521V21.4465C29.3333 26.0937 26.309 29.3333 21.7715 29.3333H10.2151C5.67968 29.3333 2.66666 26.0963 2.66666 21.4465V10.5521C2.66666 5.90744 5.68847 2.66666 10.2151 2.66666H21.7715ZM21.7715 4.67177H10.2151C6.82753 4.67177 4.67066 6.98493 4.67066 10.5521V21.4465C4.67066 25.0195 6.81958 27.3282 10.2151 27.3282H21.7715C25.1705 27.3282 27.3293 25.0158 27.3293 21.4465V10.5521C27.3293 6.98324 25.1708 4.67177 21.7715 4.67177ZM22.7211 16.2447L22.8949 16.4115L25.6685 19.2748C26.0536 19.6724 26.0437 20.3071 25.6463 20.6924C25.285 21.0428 24.7279 21.0664 24.3403 20.7691L24.2294 20.6703L21.456 17.8071C20.9728 17.3085 20.1873 17.3038 19.697 17.7692L19.5893 17.885L16.6119 21.5083C15.5587 22.7919 13.6637 22.9295 12.4376 21.8538L12.2747 21.6995L11.0865 20.4864C10.7743 20.1623 10.2766 20.1316 9.92993 20.3931L9.82045 20.4911L7.7777 22.6473C7.39699 23.0491 6.76278 23.0661 6.36116 22.6852C5.99604 22.3389 5.94884 21.783 6.2293 21.3829L6.32328 21.2679L8.36561 19.1122C9.44078 17.9759 11.2114 17.9154 12.3567 18.9289L12.5236 19.089L13.7059 20.296C14.0515 20.6487 14.6054 20.6577 14.9626 20.3404L15.0634 20.2354L18.0411 16.6118C19.2242 15.171 21.3546 15.0251 22.7211 16.2447ZM11.4302 8.85497C13.2768 8.85497 14.7755 10.3545 14.7755 12.2022C14.7755 14.0498 13.2768 15.5494 11.4302 15.5494C9.58362 15.5494 8.08616 14.0499 8.08616 12.2022C8.08616 10.3544 9.58362 8.85497 11.4302 8.85497ZM11.4302 10.8601C10.6908 10.8601 10.0902 11.4615 10.0902 12.2022C10.0902 12.9429 10.6908 13.5443 11.4302 13.5443C12.17 13.5443 12.7715 12.9424 12.7715 12.2022C12.7715 11.4619 12.17 10.8601 11.4302 10.8601Z" fill="#9B9B9B"/>
</svg>
