<svg width="24" height="24" viewBox="0 0 24 24" fill="none" xmlns="http://www.w3.org/2000/svg">
<path d="M20.9554 5.25227L20.9202 5.38781L16.4539 20.425C16.0106 21.9163 14.0662 22.2142 13.1882 20.984L13.104 20.8559L9.35828 14.6504L3.13213 10.818C1.80867 10.0033 2.02547 8.03537 3.43846 7.5036L3.58373 7.4553L18.6373 3.07502C19.9981 2.68119 21.255 3.90074 20.9554 5.25227ZM19.1093 4.44624L19.0392 4.46011L3.98621 8.84024C3.67287 8.93118 3.5959 9.33377 3.82457 9.54209L3.88814 9.58983L9.77652 13.2139L14.8198 8.13778C15.075 7.88092 15.4755 7.85631 15.7585 8.06483L15.8396 8.13438C16.0965 8.38954 16.1211 8.79008 15.9126 9.07308L15.843 9.15419L10.7928 14.2369L14.3388 20.1107C14.5076 20.3904 14.9025 20.3624 15.0421 20.0879L15.0714 20.0142L19.5378 4.97651C19.6243 4.68651 19.387 4.41643 19.1093 4.44624Z" fill="#061F6F"/>
</svg>
