<svg width="33" height="32" viewBox="0 0 33 32" fill="none" xmlns="http://www.w3.org/2000/svg">
<path d="M21.2076 2.66666C21.6749 2.66666 22.0611 3.01661 22.1222 3.47066L22.1307 3.59689L22.1307 4.64834C25.9215 4.90827 28.2427 7.3585 28.2307 11.3144V22.6326C28.2307 26.8257 25.6245 29.3333 21.4356 29.3333H11.0258C6.84189 29.3333 4.23077 26.783 4.23077 22.5387V11.3144C4.23077 7.35993 6.55946 4.90902 10.342 4.64845L10.3421 3.59689C10.3421 3.08314 10.7554 2.66666 11.2652 2.66666C11.7325 2.66666 12.1187 3.01661 12.1799 3.47066L12.1883 3.59689L12.1881 4.62532H20.2841L20.2845 3.59689C20.2845 3.08314 20.6978 2.66666 21.2076 2.66666ZM26.3841 13.7107H6.07611L6.07692 22.5387C6.07692 25.6389 7.73633 27.3597 10.7227 27.4675L11.0258 27.4729H21.4356C24.6235 27.4729 26.3846 25.7784 26.3846 22.6326L26.3841 13.7107ZM21.7093 21.5147C22.2191 21.5147 22.6323 21.9312 22.6323 22.4449C22.6323 22.9158 22.2851 23.3051 21.8345 23.3666L21.7093 23.3751C21.1881 23.3751 20.7748 22.9587 20.7748 22.4449C20.7748 21.974 21.1221 21.5848 21.5726 21.5232L21.7093 21.5147ZM16.2478 21.5147C16.7576 21.5147 17.1709 21.9312 17.1709 22.4449C17.1709 22.9158 16.8236 23.3051 16.3731 23.3666L16.2478 23.3751C15.7266 23.3751 15.3133 22.9587 15.3133 22.4449C15.3133 21.974 15.6606 21.5848 16.1112 21.5232L16.2478 21.5147ZM10.7749 21.5147C11.2847 21.5147 11.698 21.9312 11.698 22.4449C11.698 22.9158 11.3507 23.3051 10.9002 23.3666L10.7635 23.3751C10.2537 23.3751 9.84046 22.9587 9.84046 22.4449C9.84046 21.974 10.1877 21.5848 10.6383 21.5232L10.7749 21.5147ZM21.7093 16.6942C22.2191 16.6942 22.6323 17.1107 22.6323 17.6244C22.6323 18.0954 22.2851 18.4846 21.8345 18.5462L21.7093 18.5546C21.1881 18.5546 20.7748 18.1382 20.7748 17.6244C20.7748 17.1535 21.1221 16.7643 21.5726 16.7027L21.7093 16.6942ZM16.2478 16.6942C16.7576 16.6942 17.1709 17.1107 17.1709 17.6244C17.1709 18.0954 16.8236 18.4846 16.3731 18.5462L16.2478 18.5546C15.7266 18.5546 15.3133 18.1382 15.3133 17.6244C15.3133 17.1535 15.6606 16.7643 16.1112 16.7027L16.2478 16.6942ZM10.7749 16.6942C11.2847 16.6942 11.698 17.1107 11.698 17.6244C11.698 18.0954 11.3507 18.4846 10.9002 18.5462L10.7635 18.5546C10.2537 18.5546 9.84046 18.1382 9.84046 17.6244C9.84046 17.1535 10.1877 16.7643 10.6383 16.7027L10.7749 16.6942ZM20.2841 6.48532H12.1881L12.1883 7.67848C12.1883 8.19223 11.775 8.60871 11.2652 8.60871C10.7979 8.60871 10.4117 8.25875 10.3506 7.8047L10.3421 7.67848L10.3408 6.51361C7.5893 6.74449 6.07692 8.40879 6.07692 11.3144L6.07611 11.8493H26.3841L26.3846 11.3115C26.3934 8.40366 24.8888 6.7428 22.1307 6.51331L22.1307 7.67848C22.1307 8.19223 21.7174 8.60871 21.2076 8.60871C20.7403 8.60871 20.3541 8.25875 20.2929 7.8047L20.2845 7.67848L20.2841 6.48532Z" fill="#9B9B9B"/>
</svg>
