<svg width="24" height="24" viewBox="0 0 24 24" fill="none" xmlns="http://www.w3.org/2000/svg">
<path d="M14.9857 2C18.0482 2 20 3.43503 20 6.25765V20.3309C20 20.7736 19.8285 21.1982 19.5232 21.5112C19.2179 21.8242 18.8038 22 18.3608 22C18.0965 21.9957 17.8368 21.9291 17.5863 21.7971L11.974 18.6635L6.38442 21.8037C5.7112 22.1624 4.89545 21.9969 4.38431 21.3975L4.28627 21.2719L4.19263 21.1174C4.07042 20.8782 4.00448 20.613 4 20.3309V6.43434C4 3.49929 5.90915 2 9.01434 2H14.9857ZM15.4079 8.31663C15.7978 8.31663 16.1139 8.64072 16.1139 9.0405C16.1139 9.40697 15.8483 9.70984 15.5037 9.75777L15.4079 9.76438H8.54042C8.1505 9.76438 7.8344 9.44029 7.8344 9.0405C7.8344 8.67404 8.10001 8.37117 8.44462 8.32324L8.54042 8.31663H15.4079Z" fill="#061F6F"/>
</svg>
