<svg width="32" height="32" viewBox="0 0 32 32" fill="none" xmlns="http://www.w3.org/2000/svg">
<path d="M21.786 2.6656C26.306 2.6656 29.3327 5.83894 29.3327 10.5589V21.4536C29.3327 26.1603 26.306 29.3323 21.786 29.3323H10.226C5.70602 29.3323 2.66602 26.1603 2.66602 21.4536V10.5589C2.66602 5.83894 5.70602 2.6656 10.226 2.6656H21.786ZM20.0127 11.9603C19.5593 11.5056 18.826 11.5056 18.3593 11.9603L15.9993 14.3323L13.626 11.9603C13.1593 11.5056 12.426 11.5056 11.9727 11.9603C11.5193 12.4136 11.5193 13.1603 11.9727 13.6123L14.346 15.9869L11.9727 18.3469C11.5193 18.8136 11.5193 19.5469 11.9727 19.9989C12.1993 20.2256 12.506 20.3469 12.7993 20.3469C13.106 20.3469 13.3993 20.2256 13.626 19.9989L15.9993 17.6403L18.3727 19.9989C18.5993 20.2403 18.8927 20.3469 19.186 20.3469C19.4927 20.3469 19.786 20.2256 20.0127 19.9989C20.466 19.5469 20.466 18.8136 20.0127 18.3603L17.6393 15.9869L20.0127 13.6123C20.466 13.1603 20.466 12.4136 20.0127 11.9603Z" fill="#FB2047"/>
</svg>
