<svg width="37" height="20" viewBox="0 0 37 20" fill="none" xmlns="http://www.w3.org/2000/svg">
<rect x="1" y="1" width="35" height="18" rx="9" fill="#819CFF" stroke="white" stroke-width="2"/>
<path d="M14.9712 9.80518V10.7397H9.61084V9.80518H14.9712ZM12.7905 7.52246V13.2158H11.7969V7.52246H12.7905ZM17.0713 13.1675H17.1733C17.7463 13.1675 18.2118 13.0869 18.5698 12.9258C18.9279 12.7646 19.2036 12.548 19.397 12.2759C19.5903 12.0037 19.7228 11.6976 19.7944 11.3574C19.866 11.0137 19.9019 10.661 19.9019 10.2993V9.10156C19.9019 8.74707 19.8607 8.43197 19.7783 8.15625C19.6995 7.88053 19.5885 7.64958 19.4453 7.46338C19.3057 7.27718 19.1463 7.13574 18.9673 7.03906C18.7882 6.94238 18.5985 6.89404 18.3979 6.89404C18.1688 6.89404 17.9629 6.94059 17.7803 7.03369C17.6012 7.12321 17.4491 7.25033 17.3237 7.41504C17.202 7.57975 17.1089 7.77311 17.0444 7.99512C16.98 8.21712 16.9478 8.45882 16.9478 8.72021C16.9478 8.95296 16.9764 9.17855 17.0337 9.39697C17.091 9.6154 17.1787 9.81234 17.2969 9.98779C17.415 10.1632 17.5618 10.3029 17.7373 10.4067C17.9163 10.507 18.1258 10.5571 18.3657 10.5571C18.5877 10.5571 18.7954 10.5142 18.9888 10.4282C19.1857 10.3387 19.3594 10.2188 19.5098 10.0684C19.6637 9.91439 19.7855 9.74072 19.875 9.54736C19.9681 9.354 20.0218 9.15169 20.0361 8.94043H20.5088C20.5088 9.23763 20.4497 9.53125 20.3315 9.82129C20.217 10.1077 20.0558 10.3691 19.8481 10.6055C19.6405 10.8418 19.397 11.0316 19.1177 11.1748C18.8384 11.3145 18.534 11.3843 18.2046 11.3843C17.8179 11.3843 17.4831 11.3091 17.2002 11.1587C16.9173 11.0083 16.6846 10.8078 16.502 10.5571C16.3229 10.3065 16.1886 10.0272 16.0991 9.71924C16.0132 9.40771 15.9702 9.09261 15.9702 8.77393C15.9702 8.40153 16.0221 8.05241 16.126 7.72656C16.2298 7.40072 16.3838 7.11426 16.5879 6.86719C16.792 6.61654 17.0444 6.42139 17.3452 6.28174C17.6496 6.14209 18.0005 6.07227 18.3979 6.07227C18.8455 6.07227 19.2269 6.16178 19.542 6.34082C19.8571 6.51986 20.1131 6.75977 20.3101 7.06055C20.5106 7.36133 20.6574 7.69971 20.7505 8.07568C20.8436 8.45166 20.8901 8.83838 20.8901 9.23584V9.5957C20.8901 10.0003 20.8633 10.4121 20.8096 10.8311C20.7594 11.2464 20.661 11.6439 20.5142 12.0234C20.3709 12.403 20.1615 12.7432 19.8857 13.0439C19.61 13.3411 19.2502 13.5775 18.8062 13.7529C18.3657 13.9248 17.8215 14.0107 17.1733 14.0107H17.0713V13.1675ZM23.2588 13.1675H23.3608C23.9338 13.1675 24.3993 13.0869 24.7573 12.9258C25.1154 12.7646 25.3911 12.548 25.5845 12.2759C25.7778 12.0037 25.9103 11.6976 25.9819 11.3574C26.0535 11.0137 26.0894 10.661 26.0894 10.2993V9.10156C26.0894 8.74707 26.0482 8.43197 25.9658 8.15625C25.887 7.88053 25.776 7.64958 25.6328 7.46338C25.4932 7.27718 25.3338 7.13574 25.1548 7.03906C24.9757 6.94238 24.786 6.89404 24.5854 6.89404C24.3563 6.89404 24.1504 6.94059 23.9678 7.03369C23.7887 7.12321 23.6366 7.25033 23.5112 7.41504C23.3895 7.57975 23.2964 7.77311 23.2319 7.99512C23.1675 8.21712 23.1353 8.45882 23.1353 8.72021C23.1353 8.95296 23.1639 9.17855 23.2212 9.39697C23.2785 9.6154 23.3662 9.81234 23.4844 9.98779C23.6025 10.1632 23.7493 10.3029 23.9248 10.4067C24.1038 10.507 24.3133 10.5571 24.5532 10.5571C24.7752 10.5571 24.9829 10.5142 25.1763 10.4282C25.3732 10.3387 25.5469 10.2188 25.6973 10.0684C25.8512 9.91439 25.973 9.74072 26.0625 9.54736C26.1556 9.354 26.2093 9.15169 26.2236 8.94043H26.6963C26.6963 9.23763 26.6372 9.53125 26.519 9.82129C26.4045 10.1077 26.2433 10.3691 26.0356 10.6055C25.828 10.8418 25.5845 11.0316 25.3052 11.1748C25.0259 11.3145 24.7215 11.3843 24.3921 11.3843C24.0054 11.3843 23.6706 11.3091 23.3877 11.1587C23.1048 11.0083 22.8721 10.8078 22.6895 10.5571C22.5104 10.3065 22.3761 10.0272 22.2866 9.71924C22.2007 9.40771 22.1577 9.09261 22.1577 8.77393C22.1577 8.40153 22.2096 8.05241 22.3135 7.72656C22.4173 7.40072 22.5713 7.11426 22.7754 6.86719C22.9795 6.61654 23.2319 6.42139 23.5327 6.28174C23.8371 6.14209 24.188 6.07227 24.5854 6.07227C25.033 6.07227 25.4144 6.16178 25.7295 6.34082C26.0446 6.51986 26.3006 6.75977 26.4976 7.06055C26.6981 7.36133 26.8449 7.69971 26.938 8.07568C27.0311 8.45166 27.0776 8.83838 27.0776 9.23584V9.5957C27.0776 10.0003 27.0508 10.4121 26.9971 10.8311C26.9469 11.2464 26.8485 11.6439 26.7017 12.0234C26.5584 12.403 26.349 12.7432 26.0732 13.0439C25.7975 13.3411 25.4377 13.5775 24.9937 13.7529C24.5532 13.9248 24.009 14.0107 23.3608 14.0107H23.2588V13.1675Z" fill="white"/>
</svg>
