<svg width="48" height="48" viewBox="0 0 48 48" fill="none" xmlns="http://www.w3.org/2000/svg">
<path fill-rule="evenodd" clip-rule="evenodd" d="M24 26C25.1046 26 26 25.1046 26 24C26 22.8954 25.1046 22 24 22C22.8954 22 22 22.8954 22 24C22 25.1046 22.8954 26 24 26ZM28 24C28 26.2091 26.2091 28 24 28C21.7909 28 20 26.2091 20 24C20 21.7909 21.7909 20 24 20C26.2091 20 28 21.7909 28 24Z" fill="#697586"/>
<path fill-rule="evenodd" clip-rule="evenodd" d="M23.3791 15L22.9915 16.1627C22.6165 17.2876 21.7991 18.0702 20.9654 18.5345C20.9061 18.5675 20.8473 18.6014 20.7892 18.6363C19.9692 19.1286 18.8811 19.4461 17.718 19.2081L16.5163 18.9622L16.9172 17.0028L18.119 17.2487C18.6843 17.3644 19.2651 17.2186 19.7598 16.9216C19.8366 16.8755 19.9141 16.8307 19.9924 16.7871C20.4959 16.5067 20.9119 16.0769 21.0941 15.5302L21.4817 14.3675C21.7539 13.5509 22.5182 13 23.3791 13H24.621C25.4819 13 26.2462 13.5509 26.5184 14.3675L26.9059 15.5302C27.0882 16.0769 27.5042 16.5067 28.0077 16.7871C28.086 16.8307 28.1635 16.8755 28.2402 16.9216C28.7349 17.2186 29.3158 17.3644 29.881 17.2487L31.0828 17.0028C31.9262 16.8302 32.7854 17.2167 33.2158 17.9622L33.8368 19.0378C34.2672 19.7833 34.1723 20.7206 33.6011 21.3647L32.7862 22.2838C32.4042 22.7144 32.2392 23.2888 32.2483 23.8644C32.2497 23.9548 32.2497 24.0452 32.2483 24.1356C32.2392 24.7111 32.4042 25.2855 32.7862 25.7162L33.6011 26.6352C34.1723 27.2793 34.2672 28.2167 33.8368 28.9622L33.2158 30.0378C32.7854 30.7833 31.9262 31.1697 31.0828 30.9971L29.8811 30.7512C29.3158 30.6356 28.735 30.7814 28.2403 31.0784C28.1635 31.1244 28.086 31.1693 28.0077 31.2129C27.5042 31.4933 27.0882 31.9231 26.9059 32.4698L26.5184 33.6325C26.2462 34.4491 25.4819 35 24.621 35H23.3791C22.5182 35 21.7539 34.4491 21.4817 33.6325L21.0941 32.4698C20.9119 31.9231 20.4959 31.4933 19.9924 31.2129C19.9141 31.1693 19.8365 31.1244 19.7598 31.0784C19.2651 30.7814 18.6842 30.6356 18.1189 30.7512L16.9172 30.9971C16.0738 31.1697 15.2146 30.7833 14.7842 30.0378L14.1632 28.9622C13.7328 28.2167 13.8277 27.2793 14.3989 26.6352L15.8953 27.9622L16.5163 29.0378L17.718 28.7918C18.881 28.5538 19.9692 28.8714 20.7892 29.3636C20.8473 29.3985 20.906 29.4325 20.9654 29.4655C21.7991 29.9298 22.6165 30.7124 22.9915 31.8373L23.3791 33L24.621 33L25.0086 31.8373C25.3835 30.7124 26.201 29.9298 27.0347 29.4655C27.094 29.4325 27.1527 29.3985 27.2109 29.3636C28.0309 28.8714 29.119 28.5538 30.2821 28.7919L31.4837 29.0378L32.1047 27.9622L31.2898 27.0431C30.505 26.1581 30.2334 25.0606 30.2486 24.1039C30.2497 24.0346 30.2497 23.9653 30.2486 23.8961C30.2334 22.9394 30.505 21.8418 31.2898 20.9568L32.1047 20.0378L31.4837 18.9622L30.282 19.2081C29.1189 19.4461 28.0308 19.1286 27.2108 18.6363C27.1527 18.6014 27.094 18.5675 27.0347 18.5345C26.201 18.0702 25.3835 17.2876 25.0086 16.1627L24.621 15L23.3791 15ZM14.3989 26.6352L15.8953 27.9622L16.7103 27.0431C17.4951 26.1581 17.7667 25.0605 17.7515 24.1039C17.7504 24.0346 17.7504 23.9653 17.7515 23.8961C17.7667 22.9394 17.4951 21.8419 16.7103 20.9569L15.8953 20.0378L16.5163 18.9622L16.9172 17.0028C16.0738 16.8302 15.2146 17.2167 14.7842 17.9622L14.1632 19.0378C13.7328 19.7833 13.8277 20.7206 14.3989 21.3647L15.2139 22.2838C15.5958 22.7145 15.7609 23.2889 15.7518 23.8644C15.7503 23.9548 15.7503 24.0452 15.7518 24.1355C15.7609 24.7111 15.5958 25.2854 15.2139 25.7161L14.3989 26.6352Z" fill="#697586"/>
</svg>
