<svg width="123" height="29" viewBox="0 0 123 29" fill="none" xmlns="http://www.w3.org/2000/svg">
<mask id="mask0_637_726" style="mask-type:alpha" maskUnits="userSpaceOnUse" x="2" y="2" width="19" height="20">
<circle cx="9.35532" cy="9.35532" r="8.74186" transform="matrix(1 0 0 -1 2.1109 21.0247)" fill="#D9D9D9" stroke="black" stroke-width="1.22693"/>
</mask>
<g mask="url(#mask0_637_726)">
<path fill-rule="evenodd" clip-rule="evenodd" d="M19.7092 3.8266C13.4003 8.29557 6.28858 6.39737 3.13368 4.39781L2.41766 5.62399C6.01087 7.90135 13.2767 10.118 20.464 5.02677L19.7092 3.8266Z" fill="#181E22"/>
<path fill-rule="evenodd" clip-rule="evenodd" d="M19.7579 19.7978C13.4312 15.3288 6.29948 17.227 3.1357 19.2265L2.41766 18.0004C6.02099 15.723 13.3073 13.5064 20.5148 18.5976L19.7579 19.7978Z" fill="#181E22"/>
<path fill-rule="evenodd" clip-rule="evenodd" d="M12.2949 3.37773C16.7639 9.70439 14.8657 16.8361 12.8661 19.9999L14.0923 20.718C16.3697 17.1146 18.5863 9.82832 13.4951 2.62078L12.2949 3.37773Z" fill="#181E22"/>
<path fill-rule="evenodd" clip-rule="evenodd" d="M10.3927 3.37563C5.92373 9.68453 7.82193 16.7963 9.82149 19.9512L8.59531 20.6672C6.31794 17.074 4.10133 9.80811 9.19253 2.6208L10.3927 3.37563Z" fill="#181E22"/>
<rect width="17.4837" height="1.22693" transform="matrix(1 0 0 -1 2.41766 12.4362)" fill="#181E22"/>
<circle cx="9.35532" cy="9.35532" r="8.74186" transform="matrix(1 0 0 -1 2.1109 21.0247)" stroke="#181E22" stroke-width="1.22693"/>
</g>
<path d="M9.85201 25.1983C11.5746 25.7138 11.9549 26.4048 11.9298 26.6859C12.1337 25.5489 10.3714 24.2919 9.4648 23.8055C6.91484 22.2611 2.0227 20.4135 1.70159 14.16C2.74047 19.2102 7.35872 22.0242 10.787 23.436C11.0987 21.8158 10.7398 19.9303 10.4376 19.068C9.31369 16.0834 6.82633 15.343 4.05322 13.9231C1.31438 12.5208 0.691055 11.9902 0.218842 10.8058C-0.130597 12.4071 -0.0361547 15.3728 0.322728 16.8319C1.07827 20.6598 3.63767 22.4222 6.02708 23.6634C6.77423 24.0515 8.89184 24.8414 9.85201 25.1983Z" fill="#181E22"/>
<path d="M13.0326 25.1983C11.3099 25.7138 10.9296 26.4048 10.9548 26.6859C10.7508 25.5489 12.5131 24.2919 13.4198 23.8055C15.9697 22.2611 20.8619 20.4135 21.183 14.16C20.1441 19.2102 15.5259 22.0242 12.0976 23.436C11.7859 21.8158 12.1448 19.9303 12.447 19.068C13.5709 16.0834 16.0583 15.343 18.8314 13.9231C21.5702 12.5208 22.1935 11.9902 22.6657 10.8058C23.0152 12.4071 22.9207 15.3728 22.5619 16.8319C21.8063 20.6598 19.2469 22.4222 16.8575 23.6634C16.1103 24.0515 13.9927 24.8414 13.0326 25.1983Z" fill="#181E22"/>
<path d="M35.7078 6.85938V22.5H32.4959V6.85938H35.7078ZM41.7986 6V22.5H38.6942V6H41.7986ZM47.449 5.98926V22.5H44.3553V5.98926H47.449ZM54.7752 10.877L49.7264 16.6348L47.0193 19.374L45.8914 17.1396L48.0399 14.4111L51.0584 10.877H54.7752ZM51.5633 22.5L48.1258 17.1289L50.2635 15.2598L55.1297 22.5H51.5633ZM55.6131 16.8066V16.5811C55.6131 15.7288 55.7348 14.9447 55.9783 14.2285C56.2218 13.5052 56.5763 12.8786 57.0418 12.3486C57.5073 11.8187 58.0802 11.4069 58.7606 11.1133C59.4409 10.8125 60.2215 10.6621 61.1024 10.6621C61.9832 10.6621 62.7674 10.8125 63.4549 11.1133C64.1424 11.4069 64.7189 11.8187 65.1844 12.3486C65.657 12.8786 66.0151 13.5052 66.2586 14.2285C66.5021 14.9447 66.6238 15.7288 66.6238 16.5811V16.8066C66.6238 17.6517 66.5021 18.4359 66.2586 19.1592C66.0151 19.8753 65.657 20.502 65.1844 21.0391C64.7189 21.569 64.146 21.9808 63.4656 22.2744C62.7853 22.568 62.0047 22.7148 61.1238 22.7148C60.243 22.7148 59.4588 22.568 58.7713 22.2744C58.091 21.9808 57.5145 21.569 57.0418 21.0391C56.5763 20.502 56.2218 19.8753 55.9783 19.1592C55.7348 18.4359 55.6131 17.6517 55.6131 16.8066ZM58.7068 16.5811V16.8066C58.7068 17.2936 58.7498 17.7484 58.8358 18.1709C58.9217 18.5934 59.0578 18.9658 59.244 19.2881C59.4373 19.6032 59.688 19.8503 59.9959 20.0293C60.3039 20.2083 60.6798 20.2979 61.1238 20.2979C61.5535 20.2979 61.9223 20.2083 62.2303 20.0293C62.5382 19.8503 62.7853 19.6032 62.9715 19.2881C63.1577 18.9658 63.2938 18.5934 63.3797 18.1709C63.4728 17.7484 63.5193 17.2936 63.5193 16.8066V16.5811C63.5193 16.1084 63.4728 15.6644 63.3797 15.249C63.2938 14.8265 63.1541 14.4541 62.9608 14.1318C62.7746 13.8024 62.5275 13.5446 62.2195 13.3584C61.9116 13.1722 61.5392 13.0791 61.1024 13.0791C60.6655 13.0791 60.2931 13.1722 59.9852 13.3584C59.6844 13.5446 59.4373 13.8024 59.244 14.1318C59.0578 14.4541 58.9217 14.8265 58.8358 15.249C58.7498 15.6644 58.7068 16.1084 58.7068 16.5811ZM71.619 13.2832V22.5H68.5145V10.877H71.4256L71.619 13.2832ZM71.1893 16.2803H70.3299C70.3299 15.471 70.4266 14.7262 70.6199 14.0459C70.8205 13.3584 71.1105 12.764 71.4901 12.2627C71.8768 11.7542 72.353 11.3604 72.9188 11.0811C73.4845 10.8018 74.1398 10.6621 74.8846 10.6621C75.4002 10.6621 75.8729 10.7409 76.3026 10.8984C76.7322 11.0488 77.1011 11.2887 77.409 11.6182C77.7241 11.9404 77.9676 12.363 78.1395 12.8857C78.3113 13.4014 78.3973 14.0208 78.3973 14.7441V22.5H75.3035V15.0879C75.3035 14.5579 75.2319 14.1497 75.0887 13.8633C74.9455 13.5768 74.7414 13.3763 74.4764 13.2617C74.2186 13.1471 73.907 13.0898 73.5418 13.0898C73.1408 13.0898 72.7899 13.1722 72.4891 13.3369C72.1955 13.5016 71.952 13.7308 71.7586 14.0244C71.5652 14.3109 71.422 14.6475 71.3289 15.0342C71.2358 15.4209 71.1893 15.8363 71.1893 16.2803ZM78.1072 15.9258L77.0008 16.0654C77.0008 15.3063 77.0939 14.6009 77.2801 13.9492C77.4734 13.2975 77.7563 12.7246 78.1287 12.2305C78.5083 11.7363 78.9774 11.3532 79.5359 11.0811C80.0945 10.8018 80.7391 10.6621 81.4695 10.6621C82.0281 10.6621 82.5366 10.7445 82.9949 10.9092C83.4533 11.0667 83.8436 11.321 84.1658 11.6719C84.4953 12.0156 84.7459 12.4668 84.9178 13.0254C85.0968 13.584 85.1863 14.2679 85.1863 15.0771V22.5H82.0818V15.0771C82.0818 14.54 82.0102 14.1318 81.867 13.8525C81.7309 13.5661 81.5304 13.3691 81.2654 13.2617C81.0076 13.1471 80.6997 13.0898 80.3416 13.0898C79.9692 13.0898 79.6434 13.165 79.3641 13.3154C79.0848 13.4587 78.852 13.6592 78.6658 13.917C78.4796 14.1748 78.34 14.4756 78.2469 14.8193C78.1538 15.1559 78.1072 15.5247 78.1072 15.9258ZM94.4568 19.7178V10.877H97.5506V22.5H94.6395L94.4568 19.7178ZM94.8006 17.333L95.7137 17.3115C95.7137 18.085 95.6242 18.8047 95.4451 19.4707C95.2661 20.1296 94.9975 20.7025 94.6395 21.1895C94.2814 21.6693 93.8302 22.0452 93.2859 22.3174C92.7417 22.5824 92.1007 22.7148 91.3631 22.7148C90.7973 22.7148 90.2746 22.6361 89.7947 22.4785C89.3221 22.3138 88.9139 22.0596 88.5701 21.7158C88.2335 21.3649 87.9686 20.9173 87.7752 20.373C87.589 19.8216 87.4959 19.1592 87.4959 18.3857V10.877H90.5897V18.4072C90.5897 18.751 90.629 19.041 90.7078 19.2773C90.7938 19.5137 90.9119 19.707 91.0623 19.8574C91.2127 20.0078 91.3882 20.1152 91.5887 20.1797C91.7964 20.2441 92.0255 20.2764 92.2762 20.2764C92.9136 20.2764 93.4149 20.1475 93.7801 19.8896C94.1525 19.6318 94.4139 19.2809 94.5643 18.8369C94.7218 18.3857 94.8006 17.8844 94.8006 17.333ZM102.943 13.3584V22.5H99.8494V10.877H102.75L102.943 13.3584ZM102.492 16.2803H101.654C101.654 15.4209 101.765 14.6475 101.987 13.96C102.209 13.2653 102.521 12.6745 102.922 12.1875C103.323 11.6934 103.799 11.3174 104.35 11.0596C104.909 10.7946 105.532 10.6621 106.22 10.6621C106.764 10.6621 107.262 10.7409 107.713 10.8984C108.164 11.056 108.551 11.3066 108.873 11.6504C109.202 11.9941 109.453 12.4489 109.625 13.0146C109.804 13.5804 109.893 14.2715 109.893 15.0879V22.5H106.778V15.0771C106.778 14.5615 106.707 14.1605 106.563 13.874C106.42 13.5876 106.209 13.387 105.93 13.2725C105.657 13.1507 105.321 13.0898 104.92 13.0898C104.504 13.0898 104.143 13.1722 103.835 13.3369C103.534 13.5016 103.283 13.7308 103.083 14.0244C102.889 14.3109 102.743 14.6475 102.642 15.0342C102.542 15.4209 102.492 15.8363 102.492 16.2803ZM121.495 20.083V22.5H112.665V20.083H121.495ZM121.323 12.6602L113.911 22.5H111.838V20.6631L119.218 10.877H121.323V12.6602ZM120.227 10.877V13.3047H112.01V10.877H120.227Z" fill="#181E22"/>
</svg>
