<svg width="32" height="32" viewBox="0 0 32 32" fill="none" xmlns="http://www.w3.org/2000/svg">
<path d="M16.7643 5.99973C19.9939 5.99973 22.2423 8.04502 22.4817 11.0455L26.0114 9.60251C27.5385 8.97937 29.2048 10.0381 29.3261 11.647L29.3332 11.8351V20.6871C29.3332 22.3367 27.7234 23.4783 26.1876 22.9826L26.0108 22.9181L22.4817 21.4749C22.2417 24.4735 19.9887 26.5211 16.7643 26.5211H8.4056C4.98546 26.5211 2.66693 24.2289 2.66693 20.9371V11.5837C2.66693 8.29184 4.98546 5.99973 8.4056 5.99973H16.7643ZM16.7643 7.99973H8.4056C6.08493 7.99973 4.66693 9.40157 4.66693 11.5837V20.9371C4.66693 23.1192 6.08493 24.5211 8.4056 24.5211H16.7643C19.0792 24.5211 20.5029 23.1156 20.5029 20.9371L20.5027 20.023C20.5023 20.0088 20.5022 19.9945 20.5024 19.9802L20.5029 11.5837C20.5029 9.4021 19.0841 7.99973 16.7643 7.99973ZM26.858 11.4285L26.7675 11.4541L22.5029 13.1957V19.3237L26.767 21.0665C27.0077 21.1647 27.2679 21.019 27.3227 20.7805L27.3332 20.6871V11.8351C27.3332 11.5753 27.0994 11.3893 26.858 11.4285Z" fill="#9B9B9B"/>
</svg>
